<svg xmlns="http://www.w3.org/2000/svg" width="37.263" height="28.391" viewBox="0 0 37.263 28.391">
  <g id="Groupe_274" data-name="Groupe 274" transform="translate(-8 -970.362)">
    <path id="Tracé_1490" data-name="Tracé 1490" d="M9.774,970.362A1.771,1.771,0,0,0,8,972.136v4.436H23.5l-4.852-6.211Zm10.2,0,4.88,6.211H45.263v-4.436a1.771,1.771,0,0,0-1.774-1.774Zm-8.872,2.218a.887.887,0,1,1-.887.887A.887.887,0,0,1,11.105,972.58Zm3.105,0a.887.887,0,1,1-.887.887A.887.887,0,0,1,14.211,972.58Zm3.105,0a.887.887,0,1,1-.887.887A.887.887,0,0,1,17.316,972.58ZM8,977.46v19.519a1.771,1.771,0,0,0,1.774,1.774H43.489a1.771,1.771,0,0,0,1.774-1.774V977.46Zm16.414,3.105H28.85a.922.922,0,0,1,.887.887V985h3.549a.922.922,0,0,1,.887.887v4.436a.922.922,0,0,1-.887.887H29.737v3.549a.922.922,0,0,1-.887.887H24.414a.922.922,0,0,1-.887-.887v-3.549H19.977a.922.922,0,0,1-.887-.887v-4.436a.922.922,0,0,1,.887-.887h3.549v-3.549A.922.922,0,0,1,24.414,980.565Zm.887,1.774v4.436H20.865v2.662H25.3v4.436h2.662v-4.436H32.4v-2.662H27.962v-4.436Z" transform="translate(0 0)" fill="#fff"/>
  </g>
</svg>
