<svg xmlns="http://www.w3.org/2000/svg" width="24.578" height="28.508" viewBox="0 0 24.578 28.508">
  <defs>
    <style>
      .cls-1 {
        fill: #d9d9d9;
      }
    </style>
  </defs>
  <g id="Groupe_272" data-name="Groupe 272" transform="translate(-9.1 -2.5)">
    <path id="Tracé_1608" data-name="Tracé 1608" class="cls-1" d="M33.342,16.529l-2.493-3.785a.606.606,0,0,1-.09-.33A10.85,10.85,0,0,0,9.1,13.344a12.419,12.419,0,0,0,4.3,9.222.356.356,0,0,1,.12.21v5.648A1.812,1.812,0,0,0,15.2,30.257l8.471.751h.15a2,2,0,0,0,1.262-.481,1.824,1.824,0,0,0,.6-1.352V25.721h2.463a2.647,2.647,0,0,0,2.644-2.644v-3.3h.781A2.045,2.045,0,0,0,33.4,18.662,2.022,2.022,0,0,0,33.342,16.529ZM31.57,17.79H30.128a1.333,1.333,0,0,0-1.322,1.322v3.965a.667.667,0,0,1-.661.661H25.171A1.474,1.474,0,0,0,23.7,25.21v3.845l-8.2-.721V22.777a2.226,2.226,0,0,0-.811-1.712,10.45,10.45,0,0,1-3.6-7.72,8.864,8.864,0,0,1,17.694-.781,2.581,2.581,0,0,0,.391,1.2L31.69,17.7C31.63,17.79,31.6,17.79,31.57,17.79Z" transform="translate(0 0)"/>
    <circle id="Ellipse_340" data-name="Ellipse 340" class="cls-1" cx="0.901" cy="0.901" r="0.901" transform="translate(22.558 12.834)"/>
    <circle id="Ellipse_341" data-name="Ellipse 341" class="cls-1" cx="0.961" cy="0.961" r="0.961" transform="translate(19.464 13.465)"/>
    <circle id="Ellipse_342" data-name="Ellipse 342" class="cls-1" cx="0.961" cy="0.961" r="0.961" transform="translate(21.326 18.541)"/>
    <circle id="Ellipse_343" data-name="Ellipse 343" class="cls-1" cx="0.961" cy="0.961" r="0.961" transform="translate(24.511 15.207)"/>
    <circle id="Ellipse_344" data-name="Ellipse 344" class="cls-1" cx="1.232" cy="1.232" r="1.232" transform="translate(21.176 15.297)"/>
    <circle id="Ellipse_345" data-name="Ellipse 345" class="cls-1" cx="0.901" cy="0.901" r="0.901" transform="translate(18.983 16.769)"/>
  </g>
</svg>
