<svg xmlns="http://www.w3.org/2000/svg" width="29.927" height="38.478" viewBox="0 0 29.927 38.478">
  <g id="Layer_4" data-name="Layer 4" transform="translate(-11 -5)">
    <path id="Tracé_1487" data-name="Tracé 1487" d="M23.563,16.126A3.563,3.563,0,1,0,20,12.563,3.563,3.563,0,0,0,23.563,16.126Zm-3.206-3.563a.713.713,0,0,1,.713-.713H22.85V10.069a.713.713,0,1,1,1.425,0V11.85h1.781a.713.713,0,0,1,0,1.425H24.275v1.781a.713.713,0,1,1-1.425,0V13.275H21.069A.713.713,0,0,1,20.356,12.563Z" transform="translate(-2.587 -1.15)" fill="#fff"/>
    <path id="Tracé_1488" data-name="Tracé 1488" d="M43,12.531h6.121L43,6.41Z" transform="translate(-9.198 -0.405)" fill="#fff"/>
    <path id="Tracé_1489" data-name="Tracé 1489" d="M32.377,12.838V5H13.971A2.971,2.971,0,0,0,11,7.971V40.507a2.971,2.971,0,0,0,2.971,2.971H37.956a2.971,2.971,0,0,0,2.971-2.971V13.551H33.089A.713.713,0,0,1,32.377,12.838Zm-11.4-6.413a4.988,4.988,0,1,1-4.988,4.988,4.988,4.988,0,0,1,4.988-4.988Zm14.964,34.2H30.952a.713.713,0,0,1,0-1.425h4.988a.713.713,0,0,1,0,1.425Zm0-3.442H15.988a.713.713,0,0,1,0-1.425H35.939a.713.713,0,0,1,0,1.425Zm0-5.5H15.988a.713.713,0,0,1,0-1.425H35.939a.713.713,0,0,1,0,1.425Zm0-5.5H15.988a.713.713,0,0,1,0-1.425H35.939a.713.713,0,0,1,0,1.425Zm.713-6.221a.713.713,0,0,1-.713.713H15.988a.713.713,0,0,1,0-1.425H35.939A.713.713,0,0,1,36.652,19.964Z" transform="translate(0 0)" fill="#fff"/>
  </g>
</svg>
