<svg xmlns="http://www.w3.org/2000/svg" width="26.615" height="22.282" viewBox="0 0 26.615 22.282">
  <g id="noun_Stomach_415984" transform="translate(-6.175 -13.258)">
    <path id="Tracé_1622" data-name="Tracé 1622" d="M20.468,35.434a13.01,13.01,0,0,0,3.787-.595A14.96,14.96,0,0,0,27.808,33.2a11.235,11.235,0,0,0,4.486-5.955,11.95,11.95,0,0,0,.49-3.9,13.2,13.2,0,0,0-.607-3.63,9.688,9.688,0,0,0-2.171-3.76,8.238,8.238,0,0,0-2.974-2.01,9.164,9.164,0,0,0-2.673-.667A6.044,6.044,0,0,0,21.18,14a5.494,5.494,0,0,0-2.148,1.866c-.049.073-.169.161-.237.148a4.185,4.185,0,0,1-.829-.238,3.146,3.146,0,0,1-1.614-1.735c-.154-.352-.328-.58-.731-.567a.877.877,0,0,1-.1-.025,3.107,3.107,0,0,0-2.066.364,2.646,2.646,0,0,0-1.113,1.643.393.393,0,0,0,.038.222,8.132,8.132,0,0,0,1.56,2.46,10.166,10.166,0,0,0,3.7,2.571,1.72,1.72,0,0,1,.682.364,6.252,6.252,0,0,1,1.456,3.025,2.832,2.832,0,0,1-.367,1.982,3.9,3.9,0,0,1-1.57,1.378,10.256,10.256,0,0,1-2.9.908,3.338,3.338,0,0,1-1.28.049,11.308,11.308,0,0,0-1.62-.2,7.084,7.084,0,0,0-2.53.314A4.352,4.352,0,0,0,6.61,31.2a8.561,8.561,0,0,0-.4,3.668.379.379,0,0,0,.137.237,2.118,2.118,0,0,0,2.35.146.783.783,0,0,0,.431-.711,3.356,3.356,0,0,1,1.113-2.446,1.858,1.858,0,0,1,.707-.387,1.832,1.832,0,0,1,1.613.413c.385.28.717.631,1.092.926A11.09,11.09,0,0,0,20.468,35.434Z" transform="translate(-0.001 0)" fill="#d9d9d9" fill-rule="evenodd"/>
    <path id="Tracé_1623" data-name="Tracé 1623" d="M20.468,35.436a11.1,11.1,0,0,1-6.815-2.386c-.375-.295-.707-.647-1.092-.926a1.83,1.83,0,0,0-1.613-.413,1.862,1.862,0,0,0-.707.387,3.355,3.355,0,0,0-1.113,2.446.783.783,0,0,1-.431.711,2.118,2.118,0,0,1-2.35-.146.38.38,0,0,1-.137-.237,8.561,8.561,0,0,1,.4-3.668,4.352,4.352,0,0,1,2.9-2.672,7.083,7.083,0,0,1,2.53-.314,11.4,11.4,0,0,1,1.62.2,3.337,3.337,0,0,0,1.28-.049,10.256,10.256,0,0,0,2.9-.908,3.9,3.9,0,0,0,1.57-1.378,2.831,2.831,0,0,0,.367-1.982,6.251,6.251,0,0,0-1.456-3.025,1.719,1.719,0,0,0-.682-.364,10.173,10.173,0,0,1-3.7-2.571,8.132,8.132,0,0,1-1.56-2.46.393.393,0,0,1-.038-.222,2.643,2.643,0,0,1,1.113-1.643,3.107,3.107,0,0,1,2.066-.364c.034,0,.068.026.1.025.4-.013.577.216.731.567a3.148,3.148,0,0,0,1.614,1.735,4.212,4.212,0,0,0,.829.238c.068.014.188-.074.237-.148A5.492,5.492,0,0,1,21.179,14a6.044,6.044,0,0,1,3.179-.725,9.164,9.164,0,0,1,2.673.667A8.238,8.238,0,0,1,30,15.951a9.686,9.686,0,0,1,2.171,3.76,13.2,13.2,0,0,1,.607,3.63,11.95,11.95,0,0,1-.49,3.9,10.623,10.623,0,0,1-1.666,3.268,10.741,10.741,0,0,1-2.82,2.687,14.972,14.972,0,0,1-3.553,1.641A13.029,13.029,0,0,1,20.468,35.436Z" transform="translate(0 -0.001)" fill="#d9d9d9" fill-rule="evenodd"/>
  </g>
</svg>
