<svg xmlns="http://www.w3.org/2000/svg" width="55.722" height="33.262" viewBox="0 0 55.722 33.262">
  <g id="Groupe_275" data-name="Groupe 275" transform="translate(624.689 -214.654)">
    <path id="Tracé_1496" data-name="Tracé 1496" d="M-584.384,224.136c.274-.142.445-.229.616-.319q5.52-2.91,11.037-5.823a2.446,2.446,0,0,1,2.714.093,2.308,2.308,0,0,1,1.045,1.991q.007,11.2,0,22.4a2.446,2.446,0,0,1-3.7,2.114q-5.549-2.907-11.084-5.839c-.18-.095-.364-.183-.622-.313v.61q0,3.441,0,6.882a1.8,1.8,0,0,1-1.964,1.976q-18.182.005-36.365,0a1.818,1.818,0,0,1-1.972-1.981q-.006-14.643,0-29.287a1.826,1.826,0,0,1,2.013-1.99q18.158,0,36.316,0a1.8,1.8,0,0,1,1.971,1.97q.006,3.441,0,6.882Zm-30.8,7.154a10.448,10.448,0,0,0,10.435,10.429,10.454,10.454,0,0,0,10.4-10.415,10.45,10.45,0,0,0-10.411-10.453A10.448,10.448,0,0,0-615.181,231.29Z" transform="translate(0)" fill="#fff"/>
    <path id="Tracé_1497" data-name="Tracé 1497" d="M-456.707,334.354c0-1.415,0-2.831,0-4.246a1.09,1.09,0,0,1,.515-1.081,1.087,1.087,0,0,1,1.189.119c2.3,1.447,4.6,2.883,6.9,4.328a.981.981,0,0,1,.008,1.8q-3.467,2.182-6.944,4.349a1.011,1.011,0,0,1-1.662-.921C-456.714,337.25-456.707,335.8-456.707,334.354Z" transform="translate(-151.578 -103.09)" fill="#fff"/>
  </g>
</svg>
