<svg id="noun_Brain_781339" xmlns="http://www.w3.org/2000/svg" width="24.089" height="21.078" viewBox="0 0 24.089 21.078">
  <path id="Tracé_1614" data-name="Tracé 1614" d="M47.528,49.515h0C47.527,47.02,44.157,45,40,45c4.158,0,7.528,2.022,7.528,4.517Z" transform="translate(-32.472 -35.965)" fill="none"/>
  <path id="Tracé_1615" data-name="Tracé 1615" d="M47.5,54.756V52.5c3.269,0,5.27,1.462,5.27,2.258,0-.8-2-2.258-5.27-2.258Z" transform="translate(-39.975 -41.207)" fill="none"/>
  <path id="Tracé_1616" data-name="Tracé 1616" d="M42.01,28.9c-.346-2.028-3.438-4.143-7.5-4.143V22.5c-4.47,0-8.241,2.552-9.407,6.023,1.166-3.471,4.937-6.023,9.407-6.023v2.258C38.572,24.758,41.664,26.874,42.01,28.9Z" transform="translate(-22.469 -20.242)" fill="none"/>
  <path id="Tracé_1617" data-name="Tracé 1617" d="M65.028,30.923c-3.051.769-5.27,3.053-5.27,5.744H57.5a5.276,5.276,0,0,0,5.27,5.27,5.276,5.276,0,0,1-5.27-5.27h2.258C59.758,33.976,61.977,31.692,65.028,30.923Z" transform="translate(-55.242 -26.128)" fill="none"/>
  <path id="Tracé_1618" data-name="Tracé 1618" d="M17.5,43.76a6.964,6.964,0,0,1,2.415,2.632h1.3c2.154,0,3.764-1.192,3.764-2.259,0,1.066-1.61,2.259-3.764,2.259h-1.3A6.966,6.966,0,0,0,17.5,43.76Z" transform="translate(-3.149 -35.1)" fill="none"/>
  <path id="Tracé_1619" data-name="Tracé 1619" d="M26.383,27.477c-1.123-2.114-3.757-3.773-6.945-4.319C22.626,23.7,25.26,25.362,26.383,27.477Z" transform="translate(-5.135 -20.701)" fill="none"/>
  <path id="Tracé_1620" data-name="Tracé 1620" d="M10,25.539C10,19.718,15.392,15,22.044,15s12.045,4.044,12.045,9.034c0,2.495-2.7,4.517-6.022,4.517H25.056c0,2.052-2.281,3.781-5.4,4.332a10.656,10.656,0,0,1-2.186,3.2H15.943a5.707,5.707,0,0,0,1.584-3.011h0A7.528,7.528,0,0,1,10,25.539Z" transform="translate(-10 -15)" fill="#d9d9d9"/>
</svg>
