<svg xmlns="http://www.w3.org/2000/svg" width="26.56" height="26.56" viewBox="0 0 26.56 26.56">
  <defs>
    <style>
      .cls-1 {
        fill: #d9d9d9;
      }
    </style>
  </defs>
  <g id="noun_Lungs_1014572" transform="translate(77.56 -53.63)">
    <g id="Groupe_273" data-name="Groupe 273" transform="translate(-83.56 -904.731)">
      <path id="Tracé_1609" data-name="Tracé 1609" class="cls-1" d="M19.252,958.362a.941.941,0,0,0-.9.915v8.7l-1.218,1.339c.081-2.017.2-4.035.312-6.062a.948.948,0,0,0-1.124-.933c-4.014,1-6.972,4.509-8.668,8.684a21.482,21.482,0,0,0-1.048,13.247.933.933,0,0,0,.869.669,18.557,18.557,0,0,0,5.2-1.659c1.658-.812,4.31-1.932,4.466-3.819-.136-2.442-.141-4.89-.085-7.345l2.2-2.423,2.247,2.461c.055,2.442.041,4.878-.094,7.307.387,2.125,2.864,3.1,4.466,3.819,1.713.59,3.484,1.64,5.2,1.659a.933.933,0,0,0,.869-.669A21.482,21.482,0,0,0,30.9,971.005c-1.7-4.175-4.654-7.682-8.668-8.684a1.028,1.028,0,0,0-1.124.934c.114,2.043.231,4.077.312,6.11l-1.256-1.386v-8.7A.942.942,0,0,0,19.252,958.362Z" transform="translate(0 0)"/>
    </g>
  </g>
</svg>
