<svg xmlns="http://www.w3.org/2000/svg" width="24.578" height="28.508" viewBox="0 0 24.578 28.508">
  <defs>
    <style>
      .cls-1 {
        fill: #d9d9d9;
      }

      .cls-2 {
        fill: none;
      }
    </style>
  </defs>
  <g id="Groupe_277" data-name="Groupe 277" transform="translate(-303 -582.661)">
    <g id="Groupe_276" data-name="Groupe 276" transform="translate(293.9 580.161)">
      <path id="Tracé_1608" data-name="Tracé 1608" class="cls-1" d="M33.342,16.529l-2.493-3.785a.606.606,0,0,1-.09-.33A10.85,10.85,0,0,0,9.1,13.344a12.419,12.419,0,0,0,4.3,9.222.356.356,0,0,1,.12.21v5.648A1.812,1.812,0,0,0,15.2,30.257l8.471.751h.15a2,2,0,0,0,1.262-.481,1.824,1.824,0,0,0,.6-1.352V25.721h2.463a2.647,2.647,0,0,0,2.644-2.644v-3.3h.781A2.045,2.045,0,0,0,33.4,18.662,2.022,2.022,0,0,0,33.342,16.529ZM31.57,17.79H30.128a1.333,1.333,0,0,0-1.322,1.322v3.965a.667.667,0,0,1-.661.661H25.171A1.474,1.474,0,0,0,23.7,25.21v3.845l-8.2-.721V22.777a2.226,2.226,0,0,0-.811-1.712,10.45,10.45,0,0,1-3.6-7.72,8.864,8.864,0,0,1,17.694-.781,2.581,2.581,0,0,0,.391,1.2L31.69,17.7C31.63,17.79,31.6,17.79,31.57,17.79Z" transform="translate(0 0)"/>
    </g>
    <g id="noun_Brain_781339" transform="translate(307.697 586.783)">
      <path id="Tracé_1614" data-name="Tracé 1614" class="cls-2" d="M44.055,47.432h0C44.055,46.087,42.239,45,40,45c2.24,0,4.056,1.089,4.056,2.433Z" transform="translate(-35.944 -40.132)"/>
      <path id="Tracé_1615" data-name="Tracé 1615" class="cls-2" d="M47.5,53.715V52.5c1.761,0,2.839.788,2.839,1.217,0-.429-1.078-1.217-2.839-1.217Z" transform="translate(-43.447 -46.415)"/>
      <path id="Tracé_1616" data-name="Tracé 1616" class="cls-2" d="M34.213,25.949c-.186-1.092-1.852-2.232-4.038-2.232V22.5a5.223,5.223,0,0,0-5.068,3.245A5.223,5.223,0,0,1,30.175,22.5v1.217C32.361,23.717,34.027,24.856,34.213,25.949Z" transform="translate(-23.686 -21.283)"/>
      <path id="Tracé_1617" data-name="Tracé 1617" class="cls-2" d="M61.556,30.923a3.425,3.425,0,0,0-2.839,3.095H57.5a2.842,2.842,0,0,0,2.839,2.839A2.842,2.842,0,0,1,57.5,34.018h1.217A3.425,3.425,0,0,1,61.556,30.923Z" transform="translate(-56.283 -28.34)"/>
      <path id="Tracé_1618" data-name="Tracé 1618" class="cls-2" d="M17.5,43.76a3.752,3.752,0,0,1,1.3,1.418h.7c1.16,0,2.028-.642,2.028-1.217,0,.574-.867,1.217-2.028,1.217h-.7A3.753,3.753,0,0,0,17.5,43.76Z" transform="translate(-9.769 -39.094)"/>
      <path id="Tracé_1619" data-name="Tracé 1619" class="cls-2" d="M23.179,25.485a5.17,5.17,0,0,0-3.741-2.327A5.17,5.17,0,0,1,23.179,25.485Z" transform="translate(-11.732 -21.835)"/>
      <path id="Tracé_1620" data-name="Tracé 1620" class="cls-1" d="M10,20.678C10,17.542,12.9,15,16.489,15s6.489,2.179,6.489,4.867c0,1.344-1.453,2.434-3.245,2.434H18.111c0,1.105-1.229,2.037-2.911,2.334a5.741,5.741,0,0,1-1.178,1.722H13.2a3.075,3.075,0,0,0,.853-1.622h0A4.056,4.056,0,0,1,10,20.678Z" transform="translate(-10 -15)"/>
    </g>
  </g>
</svg>
