<svg xmlns="http://www.w3.org/2000/svg" width="39.935" height="33.739" viewBox="0 0 39.935 33.739">
  <g id="Layer_10_copy_2" data-name="Layer 10 copy 2" transform="translate(-10.011 -16.214)">
    <path id="Tracé_1492" data-name="Tracé 1492" d="M19.991,32.583a.5.5,0,0,1,.459.3l1.927,4.364L25.872,24.32a.5.5,0,1,1,1,.05l2.716,16.381,3.051-11.928a.5.5,0,0,1,.959-.03l2.5,7.888L37.9,32.868a.5.5,0,0,1,.454-.285H49.108a.534.534,0,0,1,.15.03c1.533-5.182.854-13.665-5.662-15.872-7.274-2.461-13.62,4.493-13.62,4.493s-6.346-6.94-13.62-4.493c-6.491,2.207-7.194,10.689-5.662,15.872a.534.534,0,0,1,.15-.03Z" transform="translate(0 0)" fill="#fff"/>
    <path id="Tracé_1493" data-name="Tracé 1493" d="M37.463,48.853a.5.5,0,0,1-.924-.065l-2.377-7.429L30.972,53.9a.5.5,0,0,1-.5.374h0a.5.5,0,0,1-.5-.414L27.248,37.38,23.982,49.467a.5.5,0,0,1-.939.07L20.662,44.18H12a7.19,7.19,0,0,0,.295.7c3.2,6.83,10.839,12.462,18.678,15.672,7.839-3.21,15.477-8.842,18.658-15.672.1-.22.2-.454.295-.7H39.67Z" transform="translate(-0.996 -10.599)" fill="#fff"/>
  </g>
</svg>
