<svg xmlns="http://www.w3.org/2000/svg" width="11.279" height="28.308" viewBox="0 0 11.279 28.308">
  <defs>
    <style>
      .cls-1 {
        fill: #d9d9d9;
        fill-rule: evenodd;
      }
    </style>
  </defs>
  <g id="noun_Bone_3204113" transform="translate(63.857 22.5)">
    <g id="Groupe_274" data-name="Groupe 274" transform="translate(-63.857 -22.5)">
      <path id="Tracé_1610" data-name="Tracé 1610" class="cls-1" d="M42.433,55.317v-.06a.783.783,0,0,0-1.045-.538,3.684,3.684,0,0,1-1.1.358,4.557,4.557,0,0,1-.9.09,5.12,5.12,0,0,1-2.12-.478.822.822,0,0,0-.747,0,4.692,4.692,0,0,1-2.12.478,4.558,4.558,0,0,1-.9-.09,4.78,4.78,0,0,1-1.1-.358.759.759,0,0,0-1.045.508c0,.03,0,.06-.03.06A3.144,3.144,0,0,0,32.668,58.6a3.5,3.5,0,0,1,1.642,2.9v5.853h5.136V61.558a3.5,3.5,0,0,1,1.642-2.9A3.239,3.239,0,0,0,42.433,55.317Z" transform="translate(-31.218 -39.042)"/>
      <path id="Tracé_1611" data-name="Tracé 1611" class="cls-1" d="M33.668,16.983a3.15,3.15,0,0,0,2.6-.657.767.767,0,0,1,.985,0,3.143,3.143,0,1,0,3.733-5.047,3.5,3.5,0,0,1-1.642-2.9V2.5H34.206V8.353a3.5,3.5,0,0,1-1.642,2.9,3.162,3.162,0,0,0,1.1,5.733Z" transform="translate(-31.143 -2.5)"/>
    </g>
  </g>
</svg>
